<svg xmlns="http://www.w3.org/2000/svg" xmlns:svg="http://www.w3.org/2000/svg" id="svg2" enable-background="new 0 0 45 45" version="1.1" viewBox="0 0 45 45" xml:space="preserve"><metadata id="metadata8"/><g id="g10" transform="matrix(1.25,0,0,-1.25,0,45)"><path id="path12" fill="#bbddf5" fill-opacity="1" fill-rule="nonzero" stroke="none" d="m 29,11 6,0 0,14 -6,0 0,-14 z"/><path id="path14" fill="#bbddf5" fill-opacity="1" fill-rule="nonzero" stroke="none" d="M 1,11 7,11 7,25 1,25 1,11 Z"/><path id="path16" fill="#bbddf5" fill-opacity="1" fill-rule="nonzero" stroke="none" d="M 9,11 27,11 27,25 9,25 9,11 Z"/><path id="path18" fill="#231f20" fill-opacity="1" fill-rule="nonzero" stroke="none" d="m 27,11 -18,0 0,14 18,0 0,-14 z m 8,14 0,5 -34,0 0,-5 6,0 0,-14 -6,0 0,-5 34,0 0,5 -6,0 0,14 6,0 z"/><path id="path20" fill="#f5f8fa" fill-opacity="1" fill-rule="nonzero" stroke="none" d="m 31,26 2,0 0,3 -2,0 0,-3 z"/><path id="path22" fill="#f5f8fa" fill-opacity="1" fill-rule="nonzero" stroke="none" d="m 27,26 2,0 0,3 -2,0 0,-3 z"/><path id="path24" fill="#f5f8fa" fill-opacity="1" fill-rule="nonzero" stroke="none" d="m 23,26 2,0 0,3 -2,0 0,-3 z"/><path id="path26" fill="#f5f8fa" fill-opacity="1" fill-rule="nonzero" stroke="none" d="m 19,26 2,0 0,3 -2,0 0,-3 z"/><path id="path28" fill="#f5f8fa" fill-opacity="1" fill-rule="nonzero" stroke="none" d="m 15,26 2,0 0,3 -2,0 0,-3 z"/><path id="path30" fill="#f5f8fa" fill-opacity="1" fill-rule="nonzero" stroke="none" d="m 11,26 2,0 0,3 -2,0 0,-3 z"/><path id="path32" fill="#f5f8fa" fill-opacity="1" fill-rule="nonzero" stroke="none" d="m 7,26 2,0 0,3 -2,0 0,-3 z"/><path id="path34" fill="#f5f8fa" fill-opacity="1" fill-rule="nonzero" stroke="none" d="m 3,26 2,0 0,3 -2,0 0,-3 z"/><path id="path36" fill="#f5f8fa" fill-opacity="1" fill-rule="nonzero" stroke="none" d="m 31,7 2,0 0,3 -2,0 0,-3 z"/><path id="path38" fill="#f5f8fa" fill-opacity="1" fill-rule="nonzero" stroke="none" d="m 27,7 2,0 0,3 -2,0 0,-3 z"/><path id="path40" fill="#f5f8fa" fill-opacity="1" fill-rule="nonzero" stroke="none" d="m 23,7 2,0 0,3 -2,0 0,-3 z"/><path id="path42" fill="#f5f8fa" fill-opacity="1" fill-rule="nonzero" stroke="none" d="m 19,7 2,0 0,3 -2,0 0,-3 z"/><path id="path44" fill="#f5f8fa" fill-opacity="1" fill-rule="nonzero" stroke="none" d="m 15,7 2,0 0,3 -2,0 0,-3 z"/><path id="path46" fill="#f5f8fa" fill-opacity="1" fill-rule="nonzero" stroke="none" d="m 11,7 2,0 0,3 -2,0 0,-3 z"/><path id="path48" fill="#f5f8fa" fill-opacity="1" fill-rule="nonzero" stroke="none" d="M 7,7 9,7 9,10 7,10 7,7 Z"/><path id="path50" fill="#f5f8fa" fill-opacity="1" fill-rule="nonzero" stroke="none" d="M 3,7 5,7 5,10 3,10 3,7 Z"/><path id="path52" fill="#88c9f9" fill-opacity="1" fill-rule="nonzero" stroke="none" d="m 29,11 1,0 0,14 -1,0 0,-14 z"/><path id="path54" fill="#88c9f9" fill-opacity="1" fill-rule="nonzero" stroke="none" d="m 9,11 1,0 0,14 -1,0 0,-14 z"/></g></svg>