<svg xmlns="http://www.w3.org/2000/svg" xmlns:svg="http://www.w3.org/2000/svg" id="svg2" enable-background="new 0 0 45 45" version="1.1" viewBox="0 0 45 45" xml:space="preserve"><metadata id="metadata8"/><defs id="defs6"><clipPath id="clipPath16" clipPathUnits="userSpaceOnUse"><path id="path18" d="M 0,36 36,36 36,0 0,0 0,36 Z"/></clipPath></defs><g id="g10" transform="matrix(1.25,0,0,-1.25,0,45)"><g id="g12"><g id="g14" clip-path="url(#clipPath16)"><g id="g20" transform="translate(6.5,3)"><path id="path22" fill="#99aab5" fill-opacity="1" fill-rule="nonzero" stroke="none" d="M 0,0 C -1.933,0 -3.5,1.567 -3.5,3.5 -3.5,5.433 -1.933,7 0,7 1.933,7 3.5,5.433 3.5,3.5 3.5,1.567 1.933,0 0,0 M 0,9 C -3.038,9 -5.5,6.537 -5.5,3.5 -5.5,0.463 -3.038,-2 0,-2 3.038,-2 5.5,0.463 5.5,3.5 5.5,6.537 3.038,9 0,9"/></g><g id="g24" transform="translate(29.5,3)"><path id="path26" fill="#99aab5" fill-opacity="1" fill-rule="nonzero" stroke="none" d="M 0,0 C -1.934,0 -3.5,1.567 -3.5,3.5 -3.5,5.433 -1.934,7 0,7 1.934,7 3.5,5.433 3.5,3.5 3.5,1.567 1.934,0 0,0 M 0,9 C -3.037,9 -5.5,6.537 -5.5,3.5 -5.5,0.463 -3.037,-2 0,-2 3.037,-2 5.5,0.463 5.5,3.5 5.5,6.537 3.037,9 0,9"/></g><g id="g28" transform="translate(6.5,2.0859)"><path id="path30" fill="#292f33" fill-opacity="1" fill-rule="nonzero" stroke="none" d="M 0,0 C -2.485,0 -4.5,2.015 -4.5,4.5 -4.5,6.985 -2.485,9 0,9 2.485,9 4.5,6.985 4.5,4.5 4.5,2.015 2.485,0 0,0 M 0,11 C -3.59,11 -6.5,8.09 -6.5,4.5 -6.5,0.91 -3.59,-2 0,-2 3.59,-2 6.5,0.91 6.5,4.5 6.5,8.09 3.59,11 0,11"/></g><g id="g32" transform="translate(29.5,2.0859)"><path id="path34" fill="#292f33" fill-opacity="1" fill-rule="nonzero" stroke="none" d="M 0,0 C -2.485,0 -4.5,2.015 -4.5,4.5 -4.5,6.985 -2.485,9 0,9 2.485,9 4.5,6.985 4.5,4.5 4.5,2.015 2.485,0 0,0 M 0,11 C -3.59,11 -6.5,8.09 -6.5,4.5 -6.5,0.91 -3.59,-2 0,-2 3.59,-2 6.5,0.91 6.5,4.5 6.5,8.09 3.59,11 0,11"/></g><g id="g36" transform="translate(7.0015,8.9492)"><path id="path38" fill="#77b255" fill-opacity="1" fill-rule="nonzero" stroke="none" d="m 0,0 c -2,-4 0.999,-2.587 1.999,-0.587 0.905,1.811 3.444,2.429 4.66,0.375 -0.952,3.05 -3.798,5.263 -7.16,5.263 -1.374,0 -2.657,-0.375 -3.764,-1.02 C -1.433,3.865 1.1,2.2 0,0"/></g><g id="g40" transform="translate(30,7)"><path id="path42" fill="#99aab5" fill-opacity="1" fill-rule="nonzero" stroke="none" d="m 0,0 c 0,-0.553 -0.447,-1 -1,-1 l -9,0 c -0.553,0 -1,0.447 -1,1 0,0.553 0.447,1 1,1 l 9,0 C -0.447,1 0,0.553 0,0"/></g><g id="g44" transform="translate(29.9229,5.6943)"><path id="path46" fill="#99aab5" fill-opacity="1" fill-rule="nonzero" stroke="none" d="m 0,0 c -0.433,-0.344 -1.062,-0.272 -1.405,0.161 l -5.601,7.045 c -0.344,0.433 -0.271,1.062 0.16,1.405 0.433,0.344 1.062,0.273 1.406,-0.161 L 0.16,1.405 C 0.504,0.973 0.432,0.344 0,0"/></g><g id="g48" transform="translate(12.4629,15.6328)"><path id="path50" fill="#ccd6dd" fill-opacity="1" fill-rule="nonzero" stroke="none" d="m 0,0 c 0.466,-0.297 0.602,-0.915 0.304,-1.381 l -4.849,-7.582 c -0.298,-0.465 -0.915,-0.601 -1.381,-0.303 -0.466,0.297 -0.602,0.915 -0.304,1.381 l 4.849,7.582 C -1.083,0.162 -0.465,0.299 0,0"/></g><g id="g52" transform="translate(10.5293,18.6323)"><path id="path54" fill="#77b255" fill-opacity="1" fill-rule="nonzero" stroke="none" d="m 0,0 c -0.811,-0.585 -4.529,-1.632 -1.529,-3.632 3,-2 5.093,-4.125 5.093,-6 0,-2.665 -0.656,-4 0.907,-4 l 7,0 c 0,0 -1,4 2,7 3,3 5,2 8,3 1.897,0.633 4,2 4,3 0,1 0,2 -2,1 -2,-1 -1,-1.551 -3,-0.551 -2,1 -3.16,-0.449 -4.16,-0.449 -1,0 -7.615,-1.68 -8.62,0.049 C 7.138,0.368 5.905,1.368 4.087,1.368 2.769,1.368 0.971,0.7 0,0"/></g><g id="g56" transform="translate(21,7)"><path id="path58" fill="#66757f" fill-opacity="1" fill-rule="nonzero" stroke="none" d="m 0,0 c 0,-1.104 -0.895,-2 -2,-2 -1.104,0 -1.999,0.896 -1.999,2 0,1.105 0.895,2 1.999,2 1.105,0 2,-0.895 2,-2"/></g><g id="g60" transform="translate(36.1982,8.9746)"><path id="path62" fill="#ccd6dd" fill-opacity="1" fill-rule="nonzero" stroke="none" d="m 0,0 -9.277,-3.732 -1.119,2.783 9.277,3.732 L 0,0 Z"/></g><g id="g64" transform="translate(35.8252,9.9023)"><path id="path66" fill="#fff" fill-opacity="1" fill-rule="nonzero" stroke="none" d="M 0,0 -9.277,-3.732 -9.65,-2.805 -0.373,0.928 0,0 Z"/></g><g id="g68" transform="translate(36.1982,8.9746)"><path id="path70" fill="#66757f" fill-opacity="1" fill-rule="nonzero" stroke="none" d="M 0,0 -9.277,-3.732 -9.65,-2.805 -0.373,0.928 0,0 Z"/></g><g id="g72" transform="translate(19,17.8628)"><path id="path74" fill="#292f33" fill-opacity="1" fill-rule="nonzero" stroke="none" d="m 0,0 c 1.366,-0.385 5.645,0.007 6.802,0.098 1.157,0.09 1.594,-0.452 0,-1.25 C 5,-2.053 1.187,-4.313 0,-4.777 -0.998,-5.168 -4.5,-3.566 -4.917,-3.081 -5.333,-2.595 -1.172,0.33 0,0"/></g><g id="g76" transform="translate(34,19)"><path id="path78" fill="#292f33" fill-opacity="1" fill-rule="nonzero" stroke="none" d="M 0,0 C -1.549,-0.04 -3,0 -4,0 -5,0 -5.158,-1.102 -2.451,-1.102 0.256,-1.102 0,0 0,0"/></g><g id="g80" transform="translate(3.7363,19.0425)"><path id="path82" fill="#77b255" fill-opacity="1" fill-rule="nonzero" stroke="none" d="M 0,0 C 0,1.465 4.456,5.134 3.975,4.476 2.825,2.903 3.485,1 5.462,1 7.438,1 8.17,-5.519 5.264,-4.042 2.357,-2.566 0,-0.719 0,0"/></g><g id="g84" transform="translate(8.606,25.4307)"><path id="path86" fill="#ccd6dd" fill-opacity="1" fill-rule="nonzero" stroke="none" d="M 0,0 C 0.704,-0.61 0.345,-1.692 -1.045,-3.485 -2.436,-5.279 -4.627,-6.006 -3.404,-4.027 -2.181,-2.048 0,0 0,0"/></g><g id="g88" transform="translate(10.5293,18.6323)"><path id="path90" fill="#66757f" fill-opacity="1" fill-rule="nonzero" stroke="none" d="m 0,0 c -0.19,-0.476 -0.73,-0.706 -1.206,-0.516 l -0.134,0.054 c -0.476,0.191 -0.707,0.73 -0.516,1.206 l 0.797,1.991 c 0.191,0.476 0.73,0.707 1.206,0.517 L 0.282,3.197 C 0.757,3.007 0.988,2.467 0.798,1.992 L 0,0 Z"/></g><g id="g92" transform="translate(12.9106,22.0093)"><path id="path94" fill="#292f33" fill-opacity="1" fill-rule="nonzero" stroke="none" d="m 0,0 c 0.094,-0.26 -0.04,-0.546 -0.3,-0.64 l -1.882,-0.679 c -0.259,-0.094 -0.545,0.04 -0.639,0.3 -0.094,0.26 0.04,0.546 0.3,0.641 L -0.64,0.301 C -0.38,0.394 -0.094,0.26 0,0"/></g></g></g></g></svg>