<svg xmlns="http://www.w3.org/2000/svg" xmlns:svg="http://www.w3.org/2000/svg" id="svg2" enable-background="new 0 0 45 45" version="1.1" viewBox="0 0 45 45" xml:space="preserve"><metadata id="metadata8"/><defs id="defs6"><clipPath id="clipPath16" clipPathUnits="userSpaceOnUse"><path id="path18" d="M 0,36 36,36 36,0 0,0 0,36 Z"/></clipPath></defs><g id="g10" transform="matrix(1.25,0,0,-1.25,0,45)"><g id="g12"><g id="g14" clip-path="url(#clipPath16)"><g id="g20" transform="translate(36,4)"><path id="path22" fill="#88c9f9" fill-opacity="1" fill-rule="nonzero" stroke="none" d="m 0,0 c 0,0 0,-4 -4,-4 l -28,0 c 0,0 -4,0 -4,4 l 0,28 c 0,4 4,4 4,4 l 28,0 c 4,0 4,-4 4,-4 L 0,0 Z"/></g><g id="g24" transform="translate(0,4)"><path id="path26" fill="#77b255" fill-opacity="1" fill-rule="nonzero" stroke="none" d="m 0,0 c 0,-4 4,-4 4,-4 l 28,0 c 4,0 4,4 4,4 L 36,17 0,17 0,0 Z"/></g><g id="g28" transform="translate(21,26)"><path id="path30" fill="#ffcc4d" fill-opacity="1" fill-rule="nonzero" stroke="none" d="M 0,0 7,7 14,0 14,-9 0,-9 0,0 Z"/></g><path id="path32" fill="#ffac33" fill-opacity="1" fill-rule="nonzero" stroke="none" d="m 22,17 -1,0 0,9 1,0 0,-9 z"/><path id="path34" fill="#ffac33" fill-opacity="1" fill-rule="nonzero" stroke="none" d="m 34,17 1,0 0,9 -1,0 0,-9 z"/><g id="g36" transform="translate(35,25)"><path id="path38" fill="#292f33" fill-opacity="1" fill-rule="nonzero" stroke="none" d="M 0,0 C -0.256,0 -0.512,0.098 -0.707,0.293 L -7,6.586 -13.293,0.293 c -0.391,-0.391 -1.023,-0.391 -1.414,0 -0.391,0.391 -0.391,1.023 0,1.414 l 7,7 c 0.391,0.391 1.023,0.391 1.414,0 l 7,-7 C 1.098,1.316 1.098,0.684 0.707,0.293 0.512,0.098 0.256,0 0,0"/></g><path id="path40" fill="#662113" fill-opacity="1" fill-rule="nonzero" stroke="none" d="m 30,17 -4,0 0,7 4,0 0,-7 z"/><path id="path42" fill="#3b88c3" fill-opacity="1" fill-rule="nonzero" stroke="none" d="m 25,22 -2,0 0,2 2,0 0,-2 z"/><path id="path44" fill="#3b88c3" fill-opacity="1" fill-rule="nonzero" stroke="none" d="m 33,22 -2,0 0,2 2,0 0,-2 z"/><path id="path46" fill="#3b88c3" fill-opacity="1" fill-rule="nonzero" stroke="none" d="m 25,19 -2,0 0,2 2,0 0,-2 z"/><path id="path48" fill="#3b88c3" fill-opacity="1" fill-rule="nonzero" stroke="none" d="m 33,19 -2,0 0,2 2,0 0,-2 z"/><g id="g50" transform="translate(2,21)"><path id="path52" fill="#ffcc4d" fill-opacity="1" fill-rule="nonzero" stroke="none" d="M 0,0 8,8 16,0 16,-11 0,-11 0,0 Z"/></g><path id="path54" fill="#ffac33" fill-opacity="1" fill-rule="nonzero" stroke="none" d="M 3,10 2,10 2,21 3,21 3,10 Z"/><path id="path56" fill="#ffac33" fill-opacity="1" fill-rule="nonzero" stroke="none" d="m 17,10 1,0 0,11 -1,0 0,-11 z"/><g id="g58" transform="translate(19,19)"><path id="path60" fill="#292f33" fill-opacity="1" fill-rule="nonzero" stroke="none" d="M 0,0 C -0.256,0 -0.512,0.098 -0.707,0.293 L -9,8.586 -17.293,0.293 c -0.391,-0.391 -1.023,-0.391 -1.414,0 -0.391,0.391 -0.391,1.023 0,1.414 l 9,9 c 0.391,0.391 1.023,0.391 1.414,0 l 9,-9 C 1.098,1.316 1.098,0.684 0.707,0.293 0.512,0.098 0.256,0 0,0"/></g><path id="path62" fill="#662113" fill-opacity="1" fill-rule="nonzero" stroke="none" d="m 12,10 -4,0 0,9 4,0 0,-9 z"/><path id="path64" fill="#3b88c3" fill-opacity="1" fill-rule="nonzero" stroke="none" d="m 7,16 -3,0 0,3 3,0 0,-3 z"/><path id="path66" fill="#3b88c3" fill-opacity="1" fill-rule="nonzero" stroke="none" d="m 16,16 -3,0 0,3 3,0 0,-3 z"/><path id="path68" fill="#3b88c3" fill-opacity="1" fill-rule="nonzero" stroke="none" d="m 7,12 -3,0 0,3 3,0 0,-3 z"/><path id="path70" fill="#3b88c3" fill-opacity="1" fill-rule="nonzero" stroke="none" d="m 16,12 -3,0 0,3 3,0 0,-3 z"/><g id="g72" transform="translate(10,17)"><path id="path74" fill="#ffe8b6" fill-opacity="1" fill-rule="nonzero" stroke="none" d="M 0,0 10,10 20,0 20,-14 0,-14 0,0 Z"/></g><path id="path76" fill="#ffcc4d" fill-opacity="1" fill-rule="nonzero" stroke="none" d="m 11,3 -1,0 0,14 1,0 0,-14 z"/><path id="path78" fill="#ffcc4d" fill-opacity="1" fill-rule="nonzero" stroke="none" d="m 29,3 1,0 0,14 -1,0 0,-14 z"/><g id="g80" transform="translate(31,15)"><path id="path82" fill="#66757f" fill-opacity="1" fill-rule="nonzero" stroke="none" d="M 0,0 C -0.256,0 -0.512,0.098 -0.707,0.293 L -11,10.586 -21.293,0.293 c -0.391,-0.391 -1.023,-0.391 -1.414,0 -0.391,0.391 -0.391,1.023 0,1.414 l 11,11 c 0.391,0.391 1.023,0.391 1.414,0 l 11,-11 C 1.098,1.316 1.098,0.684 0.707,0.293 0.512,0.098 0.256,0 0,0"/></g><path id="path84" fill="#c1694f" fill-opacity="1" fill-rule="nonzero" stroke="none" d="m 22,3 -4,0 0,6 4,0 0,-6 z"/><path id="path86" fill="#55acee" fill-opacity="1" fill-rule="nonzero" stroke="none" d="m 16,11 -4,0 0,4 4,0 0,-4 z"/><path id="path88" fill="#55acee" fill-opacity="1" fill-rule="nonzero" stroke="none" d="m 28,11 -4,0 0,4 4,0 0,-4 z"/><path id="path90" fill="#55acee" fill-opacity="1" fill-rule="nonzero" stroke="none" d="m 22,11 -4,0 0,4 4,0 0,-4 z"/><path id="path92" fill="#55acee" fill-opacity="1" fill-rule="nonzero" stroke="none" d="m 16,5 -4,0 0,4 4,0 0,-4 z"/><path id="path94" fill="#55acee" fill-opacity="1" fill-rule="nonzero" stroke="none" d="m 28,5 -4,0 0,4 4,0 0,-4 z"/></g></g></g></svg>