<svg xmlns="http://www.w3.org/2000/svg" xmlns:svg="http://www.w3.org/2000/svg" id="svg2" enable-background="new 0 0 45 45" version="1.1" viewBox="0 0 45 45" xml:space="preserve"><metadata id="metadata8"/><defs id="defs6"><clipPath id="clipPath24" clipPathUnits="userSpaceOnUse"><path id="path26" d="M 0,36 36,36 36,0 0,0 0,36 Z"/></clipPath></defs><g id="g10" transform="matrix(1.25,0,0,-1.25,0,45)"><g id="g12" transform="translate(5,18)"><path id="path14" fill="#ffe8b6" fill-opacity="1" fill-rule="nonzero" stroke="none" d="M 0,0 13,13 26,0 26,-16 0,-16 0,0 Z"/></g><path id="path16" fill="#ffcc4d" fill-opacity="1" fill-rule="nonzero" stroke="none" d="M 5,2 6,2 6,18 5,18 5,2 Z"/><path id="path18" fill="#ffcc4d" fill-opacity="1" fill-rule="nonzero" stroke="none" d="m 30,2 1,0 0,16 -1,0 0,-16 z"/><g id="g20"><g id="g22" clip-path="url(#clipPath24)"><g id="g28" transform="translate(31,17)"><path id="path30" fill="#66757f" fill-opacity="1" fill-rule="nonzero" stroke="none" d="M 0,0 C -0.256,0 -0.512,0.098 -0.707,0.293 L -13,12.586 -25.293,0.293 c -0.391,-0.391 -1.023,-0.391 -1.414,0 -0.391,0.391 -0.391,1.023 0,1.414 l 13,13 c 0.391,0.391 1.023,0.391 1.414,0 l 13,-13 C 1.098,1.316 1.098,0.684 0.707,0.293 0.512,0.098 0.256,0 0,0"/></g><path id="path32" fill="#c1694f" fill-opacity="1" fill-rule="nonzero" stroke="none" d="m 20,2 -4,0 0,8 4,0 0,-8 z"/><path id="path34" fill="#55acee" fill-opacity="1" fill-rule="nonzero" stroke="none" d="m 13,14 -4,0 0,4 4,0 0,-4 z"/><path id="path36" fill="#55acee" fill-opacity="1" fill-rule="nonzero" stroke="none" d="m 27,14 -4,0 0,4 4,0 0,-4 z"/><path id="path38" fill="#55acee" fill-opacity="1" fill-rule="nonzero" stroke="none" d="m 20,14 -4,0 0,4 4,0 0,-4 z"/><path id="path40" fill="#55acee" fill-opacity="1" fill-rule="nonzero" stroke="none" d="m 13,6 -4,0 0,4 4,0 0,-4 z"/><path id="path42" fill="#55acee" fill-opacity="1" fill-rule="nonzero" stroke="none" d="m 27,6 -4,0 0,4 4,0 0,-4 z"/><g id="g44" transform="translate(33,1)"><path id="path46" fill="#bcbec0" fill-opacity="1" fill-rule="nonzero" stroke="none" d="m 0,0 c 0,-0.553 -0.447,-1 -1,-1 l -28,0 c -0.552,0 -1,0.447 -1,1 0,0.553 0.448,1 1,1 L -1,1 C -0.447,1 0,0.553 0,0"/></g></g></g></g></svg>