<svg xmlns="http://www.w3.org/2000/svg" xmlns:svg="http://www.w3.org/2000/svg" id="svg2" enable-background="new 0 0 45 45" version="1.1" viewBox="0 0 45 45" xml:space="preserve"><metadata id="metadata8"/><defs id="defs6"><clipPath id="clipPath16" clipPathUnits="userSpaceOnUse"><path id="path18" d="M 0,36 36,36 36,0 0,0 0,36 Z"/></clipPath></defs><g id="g10" transform="matrix(1.25,0,0,-1.25,0,45)"><g id="g12"><g id="g14" clip-path="url(#clipPath16)"><g id="g20" transform="translate(0,18)"><path id="path22" fill="#aab8c2" fill-opacity="1" fill-rule="nonzero" stroke="none" d="m 0,0 0,-16 c 0,-1.105 0.896,-2 2,-2 l 32,0 c 1.105,0 2,0.895 2,2 L 36,0 0,0 Z"/></g><g id="g24" transform="translate(0,18)"><path id="path26" fill="#66757f" fill-opacity="1" fill-rule="nonzero" stroke="none" d="M 0,0 18,6.353 36,0 0,0 Z"/></g><path id="path28" fill="#55acee" fill-opacity="1" fill-rule="nonzero" stroke="none" d="m 34,12 -32,0 0,4 32,0 0,-4 z"/><path id="path30" fill="#55acee" fill-opacity="1" fill-rule="nonzero" stroke="none" d="M 34,6 2,6 2,10 34,10 34,6 Z"/><path id="path32" fill="#aab8c2" fill-opacity="1" fill-rule="nonzero" stroke="none" d="M 30,1 6,1 6,17 30,17 30,1 Z"/><path id="path34" fill="#ccd6dd" fill-opacity="1" fill-rule="nonzero" stroke="none" d="M 28,0 8,0 8,31 28,31 28,0 Z"/><path id="path36" fill="#55acee" fill-opacity="1" fill-rule="nonzero" stroke="none" d="m 26,12 -16,0 0,4 16,0 0,-4 z"/><path id="path38" fill="#55acee" fill-opacity="1" fill-rule="nonzero" stroke="none" d="m 26,6 -16,0 0,4 16,0 0,-4 z"/><path id="path40" fill="#ccd6dd" fill-opacity="1" fill-rule="nonzero" stroke="none" d="m 16,5 -2,0 0,18 2,0 0,-18 z"/><path id="path42" fill="#ccd6dd" fill-opacity="1" fill-rule="nonzero" stroke="none" d="m 22,5 -2,0 0,18 2,0 0,-18 z"/><path id="path44" fill="#3b88c3" fill-opacity="1" fill-rule="nonzero" stroke="none" d="m 20,0 -4,0 0,4 4,0 0,-4 z"/><path id="path46" fill="#dd2e44" fill-opacity="1" fill-rule="nonzero" stroke="none" d="m 23,27 -10,0 0,2 10,0 0,-2 z"/><g id="g48" transform="translate(13,25)"><path id="path50" fill="#dd2e44" fill-opacity="1" fill-rule="nonzero" stroke="none" d="m 0,0 0,-2 4,0 0,-4 2,0 0,4 4,0 0,2 -10,0 z"/></g><g id="g52" transform="translate(8,31)"><path id="path54" fill="#66757f" fill-opacity="1" fill-rule="nonzero" stroke="none" d="M 0,0 10,5 20,0 0,0 Z"/></g></g></g></g></svg>