<svg xmlns="http://www.w3.org/2000/svg" xmlns:svg="http://www.w3.org/2000/svg" id="svg2" enable-background="new 0 0 45 45" version="1.1" viewBox="0 0 45 45" xml:space="preserve"><metadata id="metadata8"/><defs id="defs6"><clipPath id="clipPath16" clipPathUnits="userSpaceOnUse"><path id="path18" d="M 0,36 36,36 36,0 0,0 0,36 Z"/></clipPath></defs><g id="g10" transform="matrix(1.25,0,0,-1.25,0,45)"><g id="g12"><g id="g14" clip-path="url(#clipPath16)"><g id="g20" transform="translate(18.1626,34.1382)"><path id="path22" fill="#939598" fill-opacity="1" fill-rule="nonzero" stroke="none" d="m 0,0 c 0.003,-0.998 -0.811,-1.821 -1.818,-1.814 -1.008,0.006 -1.791,0.839 -1.75,1.836 0.04,0.975 0.853,1.742 1.817,1.735 C -0.787,1.751 -0.003,0.974 0,0"/></g><g id="g24" transform="translate(33.8379,21.4829)"><path id="path26" fill="#d1d3d4" fill-opacity="1" fill-rule="nonzero" stroke="none" d="m 0,0 c 2.792,-16.195 3.02,-17.58 -14.316,-17.469 l -3.355,0.021 c -15.099,0.096 -17.337,0.165 -14.301,17.651 1.296,7.463 7.682,11.266 14.752,11.221 l 2.477,-0.015 C -7.673,11.364 -1.29,7.479 0,0"/></g><g id="g28" transform="translate(20.3037,34.1245)"><path id="path30" fill="#d1d3d4" fill-opacity="1" fill-rule="nonzero" stroke="none" d="m 0,0 c 0.03,-0.999 -0.763,-1.821 -1.77,-1.814 -1.008,0.006 -1.812,0.838 -1.798,1.837 0.014,0.974 0.806,1.741 1.77,1.735 C -0.834,1.752 -0.029,0.974 0,0"/></g><g id="g32" transform="translate(34.3643,18.7808)"><path id="path34" fill="#ea596e" fill-opacity="1" fill-rule="nonzero" stroke="none" d="m 0,0 c 2.995,-17.382 3.239,-18.865 -14.778,-18.751 l -3.488,0.023 c -15.693,0.099 -18.021,0.162 -14.762,18.938 1.379,7.942 7.97,11.972 15.244,11.925 l 2.55,-0.016 C -7.959,12.073 -1.372,7.96 0,0"/></g><g id="g36" transform="translate(16.1401,30.021)"><path id="path38" fill="#dd2e44" fill-opacity="1" fill-rule="nonzero" stroke="none" d="M 0,0 C 0,0 -6.717,-7.718 -4.981,-9.651 -3.172,-11.668 0,0 0,0"/></g><g id="g40" transform="translate(18.4043,30.0068)"><path id="path42" fill="#dd2e44" fill-opacity="1" fill-rule="nonzero" stroke="none" d="M 0,0 C 0,0 6.603,-7.803 4.839,-9.714 3.001,-11.707 0,0 0,0"/></g></g></g></g></svg>