<svg xmlns="http://www.w3.org/2000/svg" xmlns:svg="http://www.w3.org/2000/svg" id="svg2" enable-background="new 0 0 45 45" version="1.1" viewBox="0 0 45 45" xml:space="preserve"><metadata id="metadata8"/><g id="g10" transform="matrix(1.25,0,0,-1.25,0,45)"><path id="path12" fill="#553986" fill-opacity="1" fill-rule="nonzero" stroke="none" d="m 30,5 -4,0 0,-4 4,0 0,4 z"/><path id="path14" fill="#553986" fill-opacity="1" fill-rule="nonzero" stroke="none" d="M 6,1 10,1 10,5 6,5 6,1 Z"/><path id="path16" fill="#553986" fill-opacity="1" fill-rule="nonzero" stroke="none" d="m 20,23 4,0 0,-8 -4,0 0,8 z m -4,-8 -4,0 0,8 4,0 0,-8 z m 14,11 -2,0 0,2 -2,0 0,2 -3,0 0,4 -2,0 0,-4 -6,0 0,4 -2,0 0,-4 -3,0 0,-2 -2,0 0,-2 -2,0 0,-7 -4,0 0,-2 4,0 0,-7 4,0 0,-5 5,0 0,5 6,0 0,-5 5,0 0,5 4,0 0,7 4,0 0,2 -4,0 0,7 z"/><path id="path18" fill="#553986" fill-opacity="1" fill-rule="nonzero" stroke="none" d="m 34,19 2,0 0,11 -2,0 0,-11 z"/><path id="path20" fill="#553986" fill-opacity="1" fill-rule="nonzero" stroke="none" d="M 0,19 2,19 2,30 0,30 0,19 Z"/></g></svg>