<svg xmlns="http://www.w3.org/2000/svg" xmlns:svg="http://www.w3.org/2000/svg" id="svg2" enable-background="new 0 0 45 45" version="1.1" viewBox="0 0 45 45" xml:space="preserve"><metadata id="metadata8"/><defs id="defs6"><clipPath id="clipPath16" clipPathUnits="userSpaceOnUse"><path id="path18" d="M 0,36 36,36 36,0 0,0 0,36 Z"/></clipPath></defs><g id="g10" transform="matrix(1.25,0,0,-1.25,0,45)"><g id="g12"><g id="g14" clip-path="url(#clipPath16)"><g id="g20" transform="translate(27,0)"><path id="path22" fill="#f3d2a2" fill-opacity="1" fill-rule="nonzero" stroke="none" d="M 0,0 0,4 C 0,4 0,8 4,8 8,8 8,4 8,4 L 8,0 0,0 Z"/></g><g id="g24" transform="translate(18,0)"><path id="path26" fill="#f3d2a2" fill-opacity="1" fill-rule="nonzero" stroke="none" d="m 0,0 0,9 c 0,0 0,4 4,4 4,0 4,-4 4,-4 L 8,0 0,0 Z"/></g><g id="g28" transform="translate(9,0)"><path id="path30" fill="#f3d2a2" fill-opacity="1" fill-rule="nonzero" stroke="none" d="m 0,0 0,12 c 0,0 0,4 4,4 4,0 4,-4 4,-4 L 8,0 0,0 Z"/></g><path id="path32" fill="#f3d2a2" fill-opacity="1" fill-rule="nonzero" stroke="none" d="m 0,0 0,9 c 0,0 0,4 4,4 4,0 4,-4 4,-4 L 8,0 0,0 Z"/><g id="g34" transform="translate(16.0005,12)"><path id="path36" fill="#dd2e44" fill-opacity="1" fill-rule="nonzero" stroke="none" d="m 0,0 c 0,1.657 0,8 -3,8 -3,0 -3,-6.343 -3,-8 0,-1.657 1.343,-3 3,-3 1.657,0 3,1.343 3,3"/></g><g id="g38" transform="translate(7.0005,9)"><path id="path40" fill="#dd2e44" fill-opacity="1" fill-rule="nonzero" stroke="none" d="m 0,0 c 0,1.657 0,8 -3,8 -3,0 -3,-6.343 -3,-8 0,-1.657 1.343,-3 3,-3 1.657,0 3,1.343 3,3"/></g><g id="g42" transform="translate(25,9)"><path id="path44" fill="#dd2e44" fill-opacity="1" fill-rule="nonzero" stroke="none" d="m 0,0 c 0,1.657 0,8 -3,8 -3,0 -3,-6.343 -3,-8 0,-1.657 1.344,-3 3,-3 1.657,0 3,1.343 3,3"/></g><g id="g46" transform="translate(34,4)"><path id="path48" fill="#dd2e44" fill-opacity="1" fill-rule="nonzero" stroke="none" d="m 0,0 c 0,1.657 0,8 -3,8 -3,0 -3,-6.343 -3,-8 0,-1.657 1.344,-3 3,-3 1.657,0 3,1.343 3,3"/></g><g id="g50" transform="translate(13,20)"><path id="path52" fill="#dd2e44" fill-opacity="1" fill-rule="nonzero" stroke="none" d="m 0,0 0,-4 2,0 c 0,0 2.001,0 6,4 L 6,2 C 6,2 4.001,0 0,0"/></g><g id="g54" transform="translate(19,22)"><path id="path56" fill="#8899a6" fill-opacity="1" fill-rule="nonzero" stroke="none" d="M 0,0 8,8 10,6 2,-2 0,0 Z"/></g><g id="g58" transform="translate(27,30)"><path id="path60" fill="#8899a6" fill-opacity="1" fill-rule="nonzero" stroke="none" d="M 0,0 C 0,0 -2,2 0,4 L 2,6 9,6 9,1 6,-2 C 4,-4 2,-2 2,-2 L 0,0 Z"/></g></g></g></g></svg>