<svg xmlns="http://www.w3.org/2000/svg" xmlns:svg="http://www.w3.org/2000/svg" id="svg2" enable-background="new 0 0 45 45" version="1.1" viewBox="0 0 45 45" xml:space="preserve"><metadata id="metadata8"/><defs id="defs6"><clipPath id="clipPath16" clipPathUnits="userSpaceOnUse"><path id="path18" d="M 0,36 36,36 36,0 0,0 0,36 Z"/></clipPath></defs><g id="g10" transform="matrix(1.25,0,0,-1.25,0,45)"><g id="g12"><g id="g14" clip-path="url(#clipPath16)"><g id="g20" transform="translate(11,9)"><path id="path22" fill="#9aaab4" fill-opacity="1" fill-rule="nonzero" stroke="none" d="m 0,0 c 0,-1.104 -0.895,-2 -2,-2 -1.104,0 -2,0.896 -2,2 l 0,11 c 0,1.105 0.896,2 2,2 1.105,0 2,-0.895 2,-2 L 0,0 Z"/></g><g id="g24" transform="translate(31,9)"><path id="path26" fill="#9aaab4" fill-opacity="1" fill-rule="nonzero" stroke="none" d="m 0,0 c 0,-1.104 -0.895,-2 -2,-2 -1.104,0 -2,0.896 -2,2 l 0,11 c 0,1.105 0.896,2 2,2 1.105,0 2,-0.895 2,-2 L 0,0 Z"/></g><g id="g28" transform="translate(29,2)"><path id="path30" fill="#67757f" fill-opacity="1" fill-rule="nonzero" stroke="none" d="m 0,0 c 0,-1.104 -0.895,-2 -2,-2 -1.104,0 -2,0.896 -2,2 l 0,6 c 0,1.105 0.896,2 2,2 1.105,0 2,-0.895 2,-2 L 0,0 Z"/></g><g id="g32" transform="translate(13,2)"><path id="path34" fill="#67757f" fill-opacity="1" fill-rule="nonzero" stroke="none" d="m 0,0 c 0,-1.104 -0.895,-2 -2,-2 -1.104,0 -2,0.896 -2,2 l 0,6 c 0,1.105 0.896,2 2,2 1.105,0 2,-0.895 2,-2 L 0,0 Z"/></g><g id="g36" transform="translate(29,18)"><path id="path38" fill="#4289c1" fill-opacity="1" fill-rule="nonzero" stroke="none" d="m 0,0 c 0,-2.209 -1.791,-4 -4,-4 l -12,0 c -2.209,0 -4,1.791 -4,4 l 0,14 c 0,2.209 1.791,4 4,4 l 12,0 c 2.209,0 4,-1.791 4,-4 L 0,0 Z"/></g><path id="path40" fill="#e1e8ed" fill-opacity="1" fill-rule="nonzero" stroke="none" d="m 23,28 -8,0 0,8 8,0 0,-8 z"/><g id="g42" transform="translate(11,21)"><path id="path44" fill="#ccd6dd" fill-opacity="1" fill-rule="nonzero" stroke="none" d="m 0,0 c 0,-1.104 -0.895,-2 -2,-2 l -2,0 c -1.104,0 -2,0.896 -2,2 0,1.105 0.896,2 2,2 l 2,0 C -0.895,2 0,1.105 0,0"/></g><g id="g46" transform="translate(33,21)"><path id="path48" fill="#ccd6dd" fill-opacity="1" fill-rule="nonzero" stroke="none" d="m 0,0 c 0,-1.104 -0.895,-2 -2,-2 l -2,0 c -1.104,0 -2,0.896 -2,2 0,1.105 0.896,2 2,2 l 2,0 C -0.895,2 0,1.105 0,0"/></g><g id="g50" transform="translate(29,13)"><path id="path52" fill="#5dadec" fill-opacity="1" fill-rule="nonzero" stroke="none" d="m 0,0 c 0,-1.657 -1.343,-3 -3,-3 l -14,0 c -1.657,0 -3,1.343 -3,3 0,1.657 1.343,3 3,3 L -3,3 C -1.343,3 0,1.657 0,0"/></g><path id="path54" fill="#2a6797" fill-opacity="1" fill-rule="nonzero" stroke="none" d="M 29,7 9,7 9,13 29,13 29,7 Z"/></g></g></g></svg>