<svg xmlns="http://www.w3.org/2000/svg" xmlns:svg="http://www.w3.org/2000/svg" id="svg2" enable-background="new 0 0 45 45" version="1.1" viewBox="0 0 45 45" xml:space="preserve"><metadata id="metadata8"/><defs id="defs6"><clipPath id="clipPath16" clipPathUnits="userSpaceOnUse"><path id="path18" d="M 0,36 36,36 36,0 0,0 0,36 Z"/></clipPath></defs><g id="g10" transform="matrix(1.25,0,0,-1.25,0,45)"><g id="g12"><g id="g14" clip-path="url(#clipPath16)"><g id="g20" transform="translate(0,32)"><path id="path22" fill="#3b88c3" fill-opacity="1" fill-rule="nonzero" stroke="none" d="m 0,0 c 0,4 4,4 4,4 l 28,0 c 0,0 4,0 4,-4 l 0,-28 c 0,0 0,-4 -4,-4 l -28,0 c 0,0 -4,0 -4,4 L 0,0 Z"/></g><path id="path24" fill="#fff" fill-opacity="1" fill-rule="nonzero" stroke="none" d="m 32,28 -4,0 0,-20 4,0 0,20 z"/><path id="path26" fill="#fff" fill-opacity="1" fill-rule="nonzero" stroke="none" d="m 26,24 -4,0 0,-16 4,0 0,16 z"/><path id="path28" fill="#fff" fill-opacity="1" fill-rule="nonzero" stroke="none" d="m 20,20 -4,0 0,-12 4,0 0,12 z"/><path id="path30" fill="#fff" fill-opacity="1" fill-rule="nonzero" stroke="none" d="m 14,16 -4,0 0,-8 4,0 0,8 z"/><path id="path32" fill="#fff" fill-opacity="1" fill-rule="nonzero" stroke="none" d="M 8,12 4,12 4,8 8,8 8,12 Z"/></g></g></g></svg>