<svg xmlns="http://www.w3.org/2000/svg" xmlns:svg="http://www.w3.org/2000/svg" id="svg2" enable-background="new 0 0 45 45" version="1.1" viewBox="0 0 45 45" xml:space="preserve"><metadata id="metadata8"/><defs id="defs6"><clipPath id="clipPath16" clipPathUnits="userSpaceOnUse"><path id="path18" d="M 0,36 36,36 36,0 0,0 0,36 Z"/></clipPath></defs><g id="g10" transform="matrix(1.25,0,0,-1.25,0,45)"><g id="g12"><g id="g14" clip-path="url(#clipPath16)"><g id="g20" transform="translate(36,14)"><path id="path22" fill="#ccd6dd" fill-opacity="1" fill-rule="nonzero" stroke="none" d="m 0,0 c 0,-2.209 -1.791,-4 -4,-4 l -28,0 c -2.209,0 -4,1.791 -4,4 l 0,18 c 0,2.209 1.791,4 4,4 l 28,0 c 2.209,0 4,-1.791 4,-4 L 0,0 Z"/></g><path id="path24" fill="#5dadec" fill-opacity="1" fill-rule="nonzero" stroke="none" d="M 32,14 4,14 4,32 32,32 32,14 Z"/><path id="path26" fill="#ccd6dd" fill-opacity="1" fill-rule="nonzero" stroke="none" d="m 23,4 -10,0 0,6 10,0 0,-6 z"/><path id="path28" fill="#9aaab4" fill-opacity="1" fill-rule="nonzero" stroke="none" d="m 23,8 -10,0 0,2 10,0 0,-2 z"/><g id="g30" transform="translate(36,3)"><path id="path32" fill="#e1e8ed" fill-opacity="1" fill-rule="nonzero" stroke="none" d="m 0,0 c 0,1.657 -1.343,3 -3,3 l -30,0 c -1.657,0 -3,-1.343 -3,-3 0,-1.657 1.343,-3 3,-3 l 30,0 c 1.657,0 3,1.343 3,3"/></g><path id="path34" fill="#f5f8fa" fill-opacity="1" fill-rule="nonzero" stroke="none" d="M 5,2 3,2 3,4 5,4 5,2 Z"/><path id="path36" fill="#f5f8fa" fill-opacity="1" fill-rule="nonzero" stroke="none" d="M 9,2 7,2 7,4 9,4 9,2 Z"/><path id="path38" fill="#f5f8fa" fill-opacity="1" fill-rule="nonzero" stroke="none" d="m 13,2 -2,0 0,2 2,0 0,-2 z"/><path id="path40" fill="#f5f8fa" fill-opacity="1" fill-rule="nonzero" stroke="none" d="m 17,2 -2,0 0,2 2,0 0,-2 z"/><path id="path42" fill="#f5f8fa" fill-opacity="1" fill-rule="nonzero" stroke="none" d="m 21,2 -2,0 0,2 2,0 0,-2 z"/><path id="path44" fill="#f5f8fa" fill-opacity="1" fill-rule="nonzero" stroke="none" d="m 25,2 -2,0 0,2 2,0 0,-2 z"/><path id="path46" fill="#f5f8fa" fill-opacity="1" fill-rule="nonzero" stroke="none" d="m 29,2 -2,0 0,2 2,0 0,-2 z"/><path id="path48" fill="#f5f8fa" fill-opacity="1" fill-rule="nonzero" stroke="none" d="m 33,2 -2,0 0,2 2,0 0,-2 z"/></g></g></g></svg>