<svg xmlns="http://www.w3.org/2000/svg" xmlns:svg="http://www.w3.org/2000/svg" id="svg2" enable-background="new 0 0 45 45" version="1.1" viewBox="0 0 45 45" xml:space="preserve"><metadata id="metadata8"/><defs id="defs6"><clipPath id="clipPath16" clipPathUnits="userSpaceOnUse"><path id="path18" d="M 0,36 36,36 36,0 0,0 0,36 Z"/></clipPath><clipPath id="clipPath28" clipPathUnits="userSpaceOnUse"><path id="path30" d="M 6,29 6,12 C 6,5.373 11.372,0 18,0 l 0,0 c 6.627,0 12,5.373 12,12 l 0,0 0,17 c 0,2.016 -2,5 -12,5 l 0,0 C 8,34 6,31.016 6,29"/></clipPath><clipPath id="clipPath42" clipPathUnits="userSpaceOnUse"><path id="path44" d="M 0,36 36,36 36,0 0,0 0,36 Z"/></clipPath></defs><g id="g10" transform="matrix(1.25,0,0,-1.25,0,45)"><g id="g12"><g id="g14" clip-path="url(#clipPath16)"><g id="g20" transform="translate(18,34)"><path id="path22" fill="#99aab5" fill-opacity="1" fill-rule="nonzero" stroke="none" d="m 0,0 c -10,0 -12,-2.984 -12,-5 l 0,-17 c 0,-6.627 5.373,-12 12,-12 6.627,0 12,5.373 12,12 l 0,17 c 0,2.016 -2,5 -12,5"/></g></g></g><g id="g24"><g id="g26" clip-path="url(#clipPath28)"><path id="path32" fill="#292f33" fill-opacity="1" fill-rule="nonzero" stroke="none" d="m 22,26 -8,0 0,8 8,0 0,-8 z"/><g id="g34" transform="translate(18,27)"><path id="path36" fill="#292f33" fill-opacity="1" fill-rule="nonzero" stroke="none" d="m 0,0 c -10,0 -12,-2.984 -12,-5 l 0,-2 c 0,2.016 2,5 12,5 10,0 12,-2.984 12,-5 l 0,2 c 0,2.016 -2,5 -12,5"/></g></g></g><g id="g38"><g id="g40" clip-path="url(#clipPath42)"><g id="g46" transform="translate(22,25.5)"><path id="path48" fill="#292f33" fill-opacity="1" fill-rule="nonzero" stroke="none" d="m 0,0 c 0,-1.381 -1.79,-2.5 -4,-2.5 -2.209,0 -4,1.119 -4,2.5 0,1.381 1.791,2.5 4,2.5 2.21,0 4,-1.119 4,-2.5"/></g><g id="g50" transform="translate(20,27)"><path id="path52" fill="#99aab5" fill-opacity="1" fill-rule="nonzero" stroke="none" d="m 0,0 c 0,-1.104 -0.895,-2 -2,-2 -1.104,0 -2,0.896 -2,2 l 0,7 c 0,1.105 0.896,2 2,2 1.105,0 2,-0.895 2,-2 L 0,0 Z"/></g></g></g></g></svg>