<svg xmlns="http://www.w3.org/2000/svg" xmlns:svg="http://www.w3.org/2000/svg" id="svg2" enable-background="new 0 0 45 45" version="1.1" viewBox="0 0 45 45" xml:space="preserve"><metadata id="metadata8"/><defs id="defs6"><clipPath id="clipPath28" clipPathUnits="userSpaceOnUse"><path id="path30" d="M 0,36 36,36 36,0 0,0 0,36 Z"/></clipPath></defs><g id="g10" transform="matrix(1.25,0,0,-1.25,0,45)"><g id="g12" transform="translate(12.9996,17.0001)"><path id="path14" fill="#a7a9ac" fill-opacity="1" fill-rule="nonzero" stroke="none" d="m 0,0 -11,-17 32.001,0 -11,17 L 0,0 Z"/></g><g id="g16" transform="translate(15.0003,17.0001)"><path id="path18" fill="#58595b" fill-opacity="1" fill-rule="nonzero" stroke="none" d="m 0,0 -10,-17 25.999,0 -10,17 L 0,0 Z"/></g><g id="g20" transform="translate(17.0001,17.0001)"><path id="path22" fill="#808285" fill-opacity="1" fill-rule="nonzero" stroke="none" d="M 0,0 -9,-17 11,-17 2,0 0,0 Z"/></g><g id="g24"><g id="g26" clip-path="url(#clipPath28)"><g id="g32" transform="translate(28,1)"><path id="path34" fill="#a7a9ac" fill-opacity="1" fill-rule="nonzero" stroke="none" d="m 0,0 c 0,-0.553 -0.447,-1 -1,-1 l -18,0 c -0.552,0 -1,0.447 -1,1 0,0.553 0.448,1 1,1 L -1,1 C -0.447,1 0,0.553 0,0"/></g><g id="g36" transform="translate(26,5)"><path id="path38" fill="#a7a9ac" fill-opacity="1" fill-rule="nonzero" stroke="none" d="m 0,0 c 0,-0.553 -0.447,-1 -1,-1 l -14,0 c -0.552,0 -1,0.447 -1,1 0,0.553 0.448,1 1,1 L -1,1 C -0.447,1 0,0.553 0,0"/></g><g id="g40" transform="translate(27.0762,10.7002)"><path id="path42" fill="#58595b" fill-opacity="1" fill-rule="nonzero" stroke="none" d="m 0,0 -4.076,6.3 -10,0 -4.076,-6.3 c 1.888,-2.517 4.798,-4.699 9.076,-4.699 4.277,0 7.187,2.182 9.076,4.699"/></g><g id="g44" transform="translate(18,36)"><path id="path46" fill="#a7a9ac" fill-opacity="1" fill-rule="nonzero" stroke="none" d="m 0,0 c -9,0 -12,-3 -12,-9 l 0,-7.999 c 0,-2 3,-11.001 12,-11.001 9,0 12,9.001 12,11.001 L 12,-9 C 12,-3 9,0 0,0"/></g><g id="g48" transform="translate(8,25.0005)"><path id="path50" fill="#e6e7e8" fill-opacity="1" fill-rule="nonzero" stroke="none" d="M 0,0 C 0,9 4.477,10 10,10 15.523,10 20,9 20,0 20,-6 15.523,-10.999 10,-10.999 4.477,-10.999 0,-6 0,0"/></g><g id="g52" transform="translate(18,14.001)"><path id="path54" fill="#ffac33" fill-opacity="1" fill-rule="nonzero" stroke="none" d="M 0,0 C 1.642,0 3.186,0.45 4.553,1.227 3.77,2.27 2.03,2.999 0,2.999 -2.03,2.999 -3.769,2.27 -4.552,1.227 -3.186,0.45 -1.641,0 0,0"/></g><g id="g56" transform="translate(19,31.0029)"><path id="path58" fill="#55acee" fill-opacity="1" fill-rule="nonzero" stroke="none" d="m 0,0 0,-4.965 c 3.488,0.232 6,1.62 6,2.463 l 0,1.666 C 6,-0.044 2.308,0.002 0,0"/></g><g id="g60" transform="translate(17,31.0029)"><path id="path62" fill="#55acee" fill-opacity="1" fill-rule="nonzero" stroke="none" d="m 0,0 c -2.308,0.002 -6,-0.044 -6,-0.836 l 0,-1.666 c 0,-0.843 2.512,-2.231 6,-2.463 L 0,0 Z"/></g><g id="g64" transform="translate(6,26.0005)"><path id="path66" fill="#269" fill-opacity="1" fill-rule="nonzero" stroke="none" d="m 0,0 c 0,0 0,-3 4,-9 0,0 -4,2 -4,6 l 0,3 z"/></g><g id="g68" transform="translate(30,26.0005)"><path id="path70" fill="#269" fill-opacity="1" fill-rule="nonzero" stroke="none" d="m 0,0 c 0,0 0,-3 -4,-9 0,0 4,2 4,6 l 0,3 z"/></g></g></g></g></svg>