<svg xmlns="http://www.w3.org/2000/svg" xmlns:svg="http://www.w3.org/2000/svg" id="svg2" enable-background="new 0 0 45 45" version="1.1" viewBox="0 0 45 45" xml:space="preserve"><metadata id="metadata8"/><defs id="defs6"><clipPath id="clipPath16" clipPathUnits="userSpaceOnUse"><path id="path18" d="M 0,36 36,36 36,0 0,0 0,36 Z"/></clipPath></defs><g id="g10" transform="matrix(1.25,0,0,-1.25,0,45)"><g id="g12"><g id="g14" clip-path="url(#clipPath16)"><g id="g20" transform="translate(34.999,18.001)"><path id="path22" fill="#000" fill-opacity="1" fill-rule="nonzero" stroke="none" d="m 0,0 c 0,-9.389 -7.611,-17 -17,-17 -9.389,0 -16.999,7.611 -16.999,17 0,9.389 7.61,16.999 16.999,16.999 9.389,0 17,-7.61 17,-16.999"/></g><g id="g24" transform="translate(17,17)"><path id="path26" fill="#fff" fill-opacity="1" fill-rule="nonzero" stroke="none" d="m 0,0 c -1,0 -1,-1 -1,-1 l 0,-4 -6,0 0,4 C -7,-1 -7.021,0 -8.021,0 -9.021,0 -9,-1 -9,-1 l 0,-8 c 0,0 0,-2 2,-2 l 6,0 c 2,0 2,2 2,2 l 0,8 c 0,0 0,1 -1,1"/></g><g id="g28" transform="translate(28,26)"><path id="path30" fill="#fff" fill-opacity="1" fill-rule="nonzero" stroke="none" d="m 0,0 -9,0 0,4 0,1 c 0,0 0,1 -1,1 -1,0 -1,-1 -1,-1 l 0,-1 0,-4 c -6,0 -6,-6 -6,-6 l 0,-1 c 0,-1 1,-1 1,-1 l 2,0 c 0,0 1,0 1,1 l 0,0.207 0,0.793 c 0,2 2,2 2,2 l 11,0 c 1,0 1,1 1,1 l 0,2 c 0,0 0,1 -1,1"/></g><g id="g32" transform="translate(16,31)"><path id="path34" fill="#fff" fill-opacity="1" fill-rule="nonzero" stroke="none" d="m 0,0 -2,0 c -0.552,0 -1,-0.448 -1,-1 0,-0.552 0.448,-1 1,-1 l 2,0 c 0.552,0 1,0.448 1,1 0,0.552 -0.448,1 -1,1"/></g><g id="g36" transform="translate(20,29)"><path id="path38" fill="#fff" fill-opacity="1" fill-rule="nonzero" stroke="none" d="M 0,0 2,0 C 2.553,0 3,0.448 3,1 3,1.552 2.553,2 2,2 L 0,2 C -0.553,2 -1,1.552 -1,1 -1,0.448 -0.553,0 0,0"/></g><g id="g40" transform="translate(2,17.9995)"><path id="path42" fill="#dd2e44" fill-opacity="1" fill-rule="nonzero" stroke="none" d="M 0,0 C 0,3.968 1.453,7.592 3.845,10.388 L 26.388,-12.156 C 23.592,-14.547 19.968,-15.999 16,-15.999 7.164,-15.999 0,-8.836 0,0 m 32,0 c 0,-3.968 -1.453,-7.591 -3.845,-10.388 L 5.612,12.155 C 8.409,14.547 12.032,16 16,16 24.837,16 32,8.836 32,0 M 16,18 C 6.059,18 -2,9.941 -2,0 c 0,-9.941 8.059,-17.999 18,-17.999 9.941,0 18,8.058 18,17.999 0,9.941 -8.059,18 -18,18"/></g></g></g></g></svg>