<svg xmlns="http://www.w3.org/2000/svg" xmlns:svg="http://www.w3.org/2000/svg" id="svg2" enable-background="new 0 0 45 45" version="1.1" viewBox="0 0 45 45" xml:space="preserve"><metadata id="metadata8"/><defs id="defs6"><clipPath id="clipPath16" clipPathUnits="userSpaceOnUse"><path id="path18" d="M 0,36 36,36 36,0 0,0 0,36 Z"/></clipPath><clipPath id="clipPath98" clipPathUnits="userSpaceOnUse"><path id="path100" d="M 9.5,13 C 8.119,13 7,11.881 7,10.5 l 0,0 C 7,9.119 8.119,8 9.5,8 l 0,0 17,0 c 1.381,0 2.5,1.119 2.5,2.5 l 0,0 c 0,1.381 -1.119,2.5 -2.5,2.5 l 0,0 -17,0 z"/></clipPath><clipPath id="clipPath110" clipPathUnits="userSpaceOnUse"><path id="path112" d="M 0,36 36,36 36,0 0,0 0,36 Z"/></clipPath></defs><g id="g10" transform="matrix(1.25,0,0,-1.25,0,45)"><g id="g12"><g id="g14" clip-path="url(#clipPath16)"><g id="g20" transform="translate(36,21.5)"><path id="path22" fill="#f4900c" fill-opacity="1" fill-rule="nonzero" stroke="none" d="M 0,0 C 0,-1.933 -1.119,-3.5 -2.5,-3.5 -3.881,-3.5 -5,-1.933 -5,0 -5,1.933 -3.881,3.5 -2.5,3.5 -1.119,3.5 0,1.933 0,0"/></g><g id="g24" transform="translate(5,21.5)"><path id="path26" fill="#f4900c" fill-opacity="1" fill-rule="nonzero" stroke="none" d="M 0,0 C 0,-1.933 -1.119,-3.5 -2.5,-3.5 -3.881,-3.5 -5,-1.933 -5,0 -5,1.933 -3.881,3.5 -2.5,3.5 -1.119,3.5 0,1.933 0,0"/></g><g id="g28" transform="translate(34,17)"><path id="path30" fill="#ffac33" fill-opacity="1" fill-rule="nonzero" stroke="none" d="m 0,0 c 0,-0.553 -0.447,-1 -1,-1 l -3,0 c -0.553,0 -1,0.447 -1,1 l 0,9 c 0,0.552 0.447,1 1,1 l 3,0 C -0.447,10 0,9.552 0,9 L 0,0 Z"/></g><g id="g32" transform="translate(7,17)"><path id="path34" fill="#ffac33" fill-opacity="1" fill-rule="nonzero" stroke="none" d="m 0,0 c 0,-0.553 -0.448,-1 -1,-1 l -3,0 c -0.552,0 -1,0.447 -1,1 l 0,9 c 0,0.552 0.448,1 1,1 l 3,0 C -0.448,10 0,9.552 0,9 L 0,0 Z"/></g><g id="g36" transform="translate(28,31)"><path id="path38" fill="#ffcc4d" fill-opacity="1" fill-rule="nonzero" stroke="none" d="m 0,0 c 0,-2.761 -4.477,-4 -10,-4 -5.523,0 -10,1.239 -10,4 0,2.761 4.477,5 10,5 C -4.477,5 0,2.761 0,0"/></g><g id="g40" transform="translate(25,31.9165)"><path id="path42" fill="#f4900c" fill-opacity="1" fill-rule="nonzero" stroke="none" d="m 0,0 c 0,-1.611 -3.135,-2.917 -7,-2.917 -3.866,0 -7,1.306 -7,2.917 0,1.611 3.134,2.917 7,2.917 3.865,0 7,-1.306 7,-2.917"/></g><g id="g44" transform="translate(30,30.5)"><path id="path46" fill="#269" fill-opacity="1" fill-rule="nonzero" stroke="none" d="m 0,0 c 0,-1.381 -1.119,-1.5 -2.5,-1.5 l -19,0 c -1.381,0 -2.5,0.119 -2.5,1.5 0,1.381 1.119,2.5 2.5,2.5 l 19,0 C -1.119,2.5 0,1.381 0,0"/></g><g id="g48" transform="translate(32,6)"><path id="path50" fill="#55acee" fill-opacity="1" fill-rule="nonzero" stroke="none" d="m 0,0 c 0,-1.104 -0.895,-2 -2,-2 l -24,0 c -1.104,0 -2,0.896 -2,2 l 0,22 c 0,1.104 0.896,2 2,2 l 24,0 c 1.105,0 2,-0.896 2,-2 L 0,0 Z"/></g><g id="g52" transform="translate(35,3)"><path id="path54" fill="#3b88c3" fill-opacity="1" fill-rule="nonzero" stroke="none" d="m 0,0 c 0,-1.105 0.105,-2 -1,-2 l -32,0 c -1.104,0 -1,0.895 -1,2 l 0,1 c 0,1.105 0.896,2 2,2 L -2,3 C -0.895,3 0,2.105 0,1 L 0,0 Z"/></g><g id="g56" transform="translate(18.707,2.6357)"><path id="path58" fill="#55acee" fill-opacity="1" fill-rule="nonzero" stroke="none" d="m 0,0 c -0.391,-0.391 -1.023,-0.391 -1.414,0 l -5.657,5.657 c -0.39,0.391 -0.391,1.024 0,1.414 l 5.657,4.658 c 0.391,0.39 1.023,0.39 1.414,0 L 5.656,7.071 c 0.391,-0.39 0.392,-1.023 0,-1.414 L 0,0 Z"/></g><g id="g60" transform="translate(16,21.5)"><path id="path62" fill="#fff" fill-opacity="1" fill-rule="nonzero" stroke="none" d="M 0,0 C 0,-2.485 -2.015,-4.5 -4.5,-4.5 -6.985,-4.5 -9,-2.485 -9,0 -9,2.485 -6.985,4.5 -4.5,4.5 -2.015,4.5 0,2.485 0,0"/></g><g id="g64" transform="translate(29,21.5)"><path id="path66" fill="#fff" fill-opacity="1" fill-rule="nonzero" stroke="none" d="M 0,0 C 0,-2.485 -2.015,-4.5 -4.5,-4.5 -6.985,-4.5 -9,-2.485 -9,0 -9,2.485 -6.985,4.5 -4.5,4.5 -2.015,4.5 0,2.485 0,0"/></g><g id="g68" transform="translate(12,22)"><path id="path70" fill="#66757f" fill-opacity="1" fill-rule="nonzero" stroke="none" d="M 0,0 Z"/></g><g id="g72" transform="translate(12,22)"><path id="path74" fill="#66757f" fill-opacity="1" fill-rule="nonzero" stroke="none" d="M 0,0 Z"/></g><g id="g76" transform="translate(26,19)"><path id="path78" fill="#dd2e44" fill-opacity="1" fill-rule="nonzero" stroke="none" d="m 0,0 c 0,-0.553 -0.447,-1 -1,-1 l -1,0 c -0.553,0 -1,0.447 -1,1 l 0,5 c 0,0.552 0.447,1 1,1 l 1,0 C -0.447,6 0,5.552 0,5 L 0,0 Z"/></g><g id="g80" transform="translate(13,19)"><path id="path82" fill="#dd2e44" fill-opacity="1" fill-rule="nonzero" stroke="none" d="m 0,0 c 0,-0.553 -0.448,-1 -1,-1 l -1,0 c -0.552,0 -1,0.447 -1,1 l 0,5 c 0,0.552 0.448,1 1,1 l 1,0 C -0.448,6 0,5.552 0,5 L 0,0 Z"/></g><g id="g84" transform="translate(29,10.5)"><path id="path86" fill="#f5f8fa" fill-opacity="1" fill-rule="nonzero" stroke="none" d="m 0,0 c 0,-1.381 -1.119,-2.5 -2.5,-2.5 l -17,0 c -1.381,0 -2.5,1.119 -2.5,2.5 0,1.381 1.119,2.5 2.5,2.5 l 17,0 C -1.119,2.5 0,1.381 0,0"/></g><path id="path88" fill="#ccd6dd" fill-opacity="1" fill-rule="nonzero" stroke="none" d="m 19,8 -2,0 0,5 2,0 0,-5 z"/><path id="path90" fill="#ccd6dd" fill-opacity="1" fill-rule="nonzero" stroke="none" d="m 14,8 -2,0 0,5 2,0 0,-5 z"/><path id="path92" fill="#ccd6dd" fill-opacity="1" fill-rule="nonzero" stroke="none" d="m 24,8 -2,0 0,5 2,0 0,-5 z"/></g></g><g id="g94"><g id="g96" clip-path="url(#clipPath98)"><path id="path102" fill="#ccd6dd" fill-opacity="1" fill-rule="nonzero" stroke="none" d="M 9,8 7,8 7,13 9,13 9,8 Z"/><path id="path104" fill="#ccd6dd" fill-opacity="1" fill-rule="nonzero" stroke="none" d="m 29,8 -2,0 0,5 2,0 0,-5 z"/></g></g><g id="g106"><g id="g108" clip-path="url(#clipPath110)"><g id="g114" transform="translate(30,3)"><path id="path116" fill="#55acee" fill-opacity="1" fill-rule="nonzero" stroke="none" d="M 0,0 Z"/></g><g id="g118" transform="translate(30,3)"><path id="path120" fill="#55acee" fill-opacity="1" fill-rule="nonzero" stroke="none" d="M 0,0 Z"/></g></g></g></g></svg>