<svg xmlns="http://www.w3.org/2000/svg" xmlns:svg="http://www.w3.org/2000/svg" id="svg2" enable-background="new 0 0 45 45" version="1.1" viewBox="0 0 45 45" xml:space="preserve"><metadata id="metadata8"/><defs id="defs6"><clipPath id="clipPath16" clipPathUnits="userSpaceOnUse"><path id="path18" d="M 0,36 36,36 36,0 0,0 0,36 Z"/></clipPath></defs><g id="g10" transform="matrix(1.25,0,0,-1.25,0,45)"><g id="g12"><g id="g14" clip-path="url(#clipPath16)"><g id="g20" transform="translate(28,24)"><path id="path22" fill="#be1931" fill-opacity="1" fill-rule="nonzero" stroke="none" d="m 0,0 -15,0 0,4 c 0,0.552 0.448,1 1,1 l 11,0 c 1.104,0 2,0.896 2,2 0,1.104 -0.896,2 -2,2 l -11,0 c -2.761,0 -5,-2.239 -5,-5 l 0,-4 -1,0 c -1.104,0 -2,-0.896 -2,-2 0,-1.104 0.896,-2 2,-2 l 20,0 c 1.104,0 2,0.896 2,2 0,1.104 -0.896,2 -2,2"/></g><g id="g24" transform="translate(36,11)"><path id="path26" fill="#66757f" fill-opacity="1" fill-rule="nonzero" stroke="none" d="m 0,0 c 0,-3.314 -2.686,-6 -6,-6 l -24,0 c -3.313,0 -6,2.686 -6,6 l 0,5 c 0,3.314 2.687,6 6,6 l 24,0 C -2.686,11 0,8.314 0,5 L 0,0 Z"/></g><path id="path28" fill="#99aab5" fill-opacity="1" fill-rule="nonzero" stroke="none" d="m 36,11 -36,0 0,5 36,0 0,-5 z"/></g></g></g></svg>