<svg xmlns="http://www.w3.org/2000/svg" xmlns:svg="http://www.w3.org/2000/svg" id="svg2" enable-background="new 0 0 45 45" version="1.1" viewBox="0 0 45 45" xml:space="preserve"><metadata id="metadata8"/><g id="g10" transform="matrix(1.25,0,0,-1.25,0,45)"><g id="g12" transform="translate(17.9415,26.4708)"><path id="path14" fill="#c1694f" fill-opacity="1" fill-rule="nonzero" stroke="none" d="m 0,0 -16.942,-20.119 6.353,-6.352 22.235,13.765 4.235,9.529 L 10.588,2.118 0,0 Z"/></g><g id="g16" transform="translate(0.9999,6.3522)"><path id="path18" fill="#662113" fill-opacity="1" fill-rule="nonzero" stroke="none" d="m 0,0 6.353,-6.352 0,8 L 0,7.648 0,0 Z"/></g><g id="g20" transform="translate(34,31)"><path id="path22" fill="#a04e3c" fill-opacity="1" fill-rule="nonzero" stroke="none" d="m 0,0 0,-7.706 -4.412,-9.529 0,7.235 L -6,-3 0,0 Z"/></g><g id="g24" transform="translate(28.5291,36)"><path id="path26" fill="#d99e82" fill-opacity="1" fill-rule="nonzero" stroke="none" d="M 0,0 -10.588,-2.118 -27.529,-22 -21.176,-28.588 1.058,-14.824 5.471,-5 0,0 Z"/></g><g id="g28" transform="translate(12,7)"><path id="path30" fill="none" stroke="#ffac33" stroke-dasharray="none" stroke-linecap="round" stroke-linejoin="round" stroke-miterlimit="10" stroke-opacity="1" stroke-width="2" d="M 0,0 3,2"/></g><g id="g32" transform="translate(23,14)"><path id="path34" fill="none" stroke="#ffac33" stroke-dasharray="none" stroke-linecap="round" stroke-linejoin="round" stroke-miterlimit="10" stroke-opacity="1" stroke-width="2" d="M 0,0 3,2"/></g><g id="g36" transform="translate(21,31)"><path id="path38" fill="none" stroke="#c1694f" stroke-dasharray="none" stroke-linecap="round" stroke-linejoin="round" stroke-miterlimit="10" stroke-opacity="1" stroke-width="2" d="m 0,0 -15,-16 3,-3 L 6,-6 8,-1 6,1 0,0 Z"/></g></g></svg>